Coordinates
version=1
nRows=21
nColumns=28
inDegrees=yes

Units are S.I. units (second, meters, Newtons, ...)
If the header above contains a line with 'inDegrees', this indicates whether rotational values are in degrees (yes) or radians (no).

endheader
time	pelvis_tilt	pelvis_list	pelvis_rotation	pelvis_tx	pelvis_ty	pelvis_tz	hip_flexion_r	hip_adduction_r	hip_rotation_r	knee_angle_r	knee_angle_r_ie	knee_angle_r_vv	ankle_angle_r	subtalar_angle_r	mtp_angle_r	hip_flexion_l	hip_adduction_l	hip_rotation_l	knee_angle_l	knee_angle_l_ie	knee_angle_l_vv	ankle_angle_l	subtalar_angle_l	mtp_angle_l	lumbar_extension	lumbar_bending	lumbar_rotation
      6.49500000	      4.36852409	     -4.29655838	     -1.96246690	     -0.03941738	      1.18489948	      0.36806425	     10.15172308	     -1.17337085	     -1.02661556	      0.19186656	    -13.40930684	      0.23132476	    -13.83755027	      1.44840157	      0.00000000	    -18.01690555	      0.06298071	      1.45864289	      0.24349623	     13.82508165	     -3.63594824	     18.61517872	     -3.89633535	      0.00000000	     -7.94997248	     -0.05255039	     -9.11317107
      6.50000000	      4.34074523	     -4.24044173	     -1.98684388	     -0.03775561	      1.18447067	      0.36831054	     10.08825940	     -1.22124679	     -1.00720775	      0.15596584	    -13.40386203	      0.22792442	    -13.88640048	      1.47154368	      0.00000000	    -18.06451955	      0.12234086	      1.47343588	      0.16450664	     13.83119352	     -3.63257870	     18.72128307	     -3.93314939	      0.00000000	     -7.91222381	     -0.07547381	     -9.14296104
      6.50500000	      4.30823651	     -4.20441229	     -2.01922854	     -0.03604806	      1.18401765	      0.36859626	     10.02635465	     -1.24441242	     -0.98988650	      0.12532971	    -13.40999813	      0.22702284	    -13.93285969	      1.48322215	      0.00000000	    -18.11721906	      0.15596836	      1.49254164	      0.09013640	     13.83337713	     -3.63710844	     18.84728439	     -3.96634634	      0.00000000	     -7.86459553	     -0.07914043	     -9.14732297
      6.51000000	      4.43898618	     -4.07064993	     -2.04398353	     -0.03424269	      1.18382408	      0.36861311	      9.77040640	     -1.42394127	     -0.93146815	      0.11456389	    -13.44487297	      0.28814925	    -13.95286809	      1.46513316	      0.00000000	    -18.35811338	      0.34522960	      1.53994980	      0.05314791	     13.87177353	     -3.58132260	     18.92095631	     -3.92123305	      0.00000000	     -7.99129276	     -0.16765917	     -9.14889097
      6.51500000	      4.30774586	     -4.14491411	     -2.07752352	     -0.03264284	      1.18317140	      0.36915483	      9.83511316	     -1.28411109	     -0.92321734	      0.06783985	    -13.45598277	      0.23638163	    -14.01727632	      1.46558218	      0.00000000	    -18.28930524	      0.21509660	      1.54057608	     -0.06374142	     13.87449858	     -3.64312485	     19.13662429	     -3.95814610	      0.00000000	     -7.85244602	     -0.06536883	     -9.14040210
      6.52000000	      4.26028594	     -4.09038479	     -2.10577869	     -0.03098390	      1.18267632	      0.36942459	      9.80814003	     -1.33252358	     -0.92242592	      0.02011758	    -13.46349250	      0.24267461	    -14.06965420	      1.47438293	      0.00000000	    -18.30358745	      0.27486993	      1.55734586	     -0.17192841	     13.87546108	     -3.63415516	     19.27060944	     -3.97412712	      0.00000000	     -7.80281880	     -0.08161670	     -9.14713506
      6.52500000	      4.33174912	     -3.95061889	     -2.14239347	     -0.02918628	      1.18238497	      0.36951182	      9.63422352	     -1.50988845	     -0.86762366	     -0.00815339	    -13.46621675	      0.29135156	    -14.07897876	      1.46832485	      0.00000000	    -18.46503278	      0.46526741	      1.58695456	     -0.24566297	     13.89292443	     -3.58064059	     19.35525720	     -3.91703913	      0.00000000	     -7.86783492	     -0.17466201	     -9.12781445
      6.53000000	      4.31104629	     -3.92489677	     -2.18384953	     -0.02745546	      1.18190231	      0.36983848	      9.57683019	     -1.52168579	     -0.84737538	     -0.05700509	    -13.46726770	      0.29115034	    -14.11710088	      1.46956395	      0.00000000	    -18.52636634	      0.49915073	      1.56875814	     -0.33297864	     13.92879598	     -3.57011124	     19.49968265	     -3.93005788	      0.00000000	     -7.84374798	     -0.15654017	     -9.13104557
      6.53500000	      4.30691972	     -3.90147159	     -2.21151426	     -0.02568815	      1.18144718	      0.37015936	      9.48599306	     -1.53726564	     -0.74727060	     -0.07387925	    -13.52899141	      0.30558281	    -14.19811301	      1.34815978	      0.00000000	    -18.60298277	      0.52981412	      1.50751059	     -0.46785008	     14.26843963	     -3.54965954	     19.85877619	     -3.22238612	      0.00000000	     -7.83656843	     -0.12812045	     -9.15122420
      6.54000000	      4.27811703	     -3.86071883	     -2.23514671	     -0.02394703	      1.18094753	      0.37049684	      9.43997824	     -1.56617039	     -0.76758498	     -0.12390269	    -13.50343927	      0.30266228	    -14.21798712	      1.37311962	      0.00000000	    -18.64071293	      0.56721593	      1.55438661	     -0.58990138	     14.29306046	     -3.54588046	     19.99930951	     -3.23180866	      0.00000000	     -7.81531098	     -0.14013546	     -9.13449489
      6.54500000	      4.25853267	     -3.82039656	     -2.24556182	     -0.02215818	      1.18046361	      0.37081993	      9.37512335	     -1.59851172	     -0.78045839	     -0.16045271	    -13.49382653	      0.29818044	    -14.24679894	      1.38668859	      0.00000000	    -18.69216631	      0.60398018	      1.57726896	     -0.70758530	     14.31776228	     -3.53580936	     20.15414200	     -3.22110384	      0.00000000	     -7.79691587	     -0.13686113	     -9.15313315
      6.55000000	      4.27514922	     -3.79937418	     -2.25415487	     -0.02031293	      1.18001848	      0.37118658	      9.25817876	     -1.60356264	     -0.81745562	     -0.17087302	    -13.44124458	      0.28295028	    -14.28785535	      1.37331546	      0.00000000	    -18.79088182	      0.61657001	      1.59281323	     -0.88483852	     15.02802505	     -3.52588927	     20.61087261	     -1.99338178	      0.00000000	     -7.82166449	     -0.11672118	     -9.16732969
      6.55500000	      4.24500259	     -3.77188248	     -2.26391921	     -0.01848524	      1.17950703	      0.37155220	      9.20403755	     -1.61927684	     -0.82079327	     -0.20282125	    -13.45518267	      0.28028228	    -14.32456802	      1.37245842	      0.00000000	    -18.83047873	      0.63767717	      1.60212260	     -1.00526821	     15.04635900	     -3.51863773	     20.75632078	     -2.02398078	      0.00000000	     -7.79357671	     -0.10068845	     -9.19895524
      6.56000000	      4.23360850	     -3.73797745	     -2.26291683	     -0.01663830	      1.17901741	      0.37191497	      9.12547243	     -1.64412949	     -0.82918395	     -0.22272590	    -13.46417851	      0.27503860	    -14.37352326	      1.37444192	      0.00000000	    -18.88625640	      0.66105331	      1.62928234	     -1.13706783	     15.04272566	     -3.51163078	     20.90920765	     -2.02458371	      0.00000000	     -7.79089321	     -0.09269352	     -9.23193846
      6.56500000	      4.22739037	     -3.71515538	     -2.26447304	     -0.01475786	      1.17852619	      0.37229944	      9.03947248	     -1.65436065	     -0.84456256	     -0.23781576	    -13.47128945	      0.26749152	    -14.42583456	      1.37386737	      0.00000000	    -18.95168116	      0.67337222	      1.64221021	     -1.26571292	     15.04853931	     -3.50556957	     21.06698417	     -2.01506764	      0.00000000	     -7.79527394	     -0.07173741	     -9.26714569
      6.57000000	      4.23080137	     -3.69114958	     -2.27336183	     -0.01283557	      1.17804890	      0.37269598	      8.94092764	     -1.66531464	     -0.85581664	     -0.24710231	    -13.47048994	      0.25914128	    -14.48174434	      1.37458076	      0.00000000	    -19.03136700	      0.69115254	      1.64831333	     -1.39132275	     15.06118186	     -3.49722635	     21.21762715	     -1.99449363	      0.00000000	     -7.81015206	     -0.05227253	     -9.29529000
      6.57500000	      4.31635897	     -3.66977243	     -2.26518787	     -0.01088754	      1.17767437	      0.37306994	      8.74209819	     -1.67949289	     -0.90678993	     -0.23425382	    -13.35567768	      0.25133387	    -14.55884331	      1.26467231	      0.00000000	    -19.20526897	      0.70782259	      1.68183915	     -1.53806219	     15.50866696	     -3.47694142	     21.49484057	     -1.24027346	      0.00000000	     -7.92825222	     -0.03378656	     -9.31116033
      6.58000000	      4.28072177	     -3.65107049	     -2.26966769	     -0.00896051	      1.17714381	      0.37349469	      8.69611388	     -1.68214731	     -0.92524398	     -0.25922050	    -13.38143406	      0.24672440	    -14.60175416	      1.25867467	      0.00000000	    -19.23209850	      0.71332987	      1.67859429	     -1.67855013	     15.52414556	     -3.47871811	     21.65249841	     -1.27038350	      0.00000000	     -7.90503643	     -0.00267648	     -9.36102355
      6.58500000	      4.26662440	     -3.63000054	     -2.28695352	     -0.00698845	      1.17664556	      0.37394410	      8.62432188	     -1.68659113	     -0.92190952	     -0.27499206	    -13.38504510	      0.23759181	    -14.65253961	      1.26354144	      0.00000000	    -19.28715072	      0.72635036	      1.68672846	     -1.81712476	     15.52876818	     -3.47202562	     21.78685569	     -1.28162714	      0.00000000	     -7.90740871	      0.01921432	     -9.38440987
      6.59000000	      4.27377185	     -3.61951279	     -2.29288794	     -0.00498118	      1.17617085	      0.37437058	      8.52117664	     -1.68434897	     -0.92921044	     -0.27595780	    -13.39681449	      0.23138629	    -14.70485624	      1.25304692	      0.00000000	    -19.36901588	      0.72946049	      1.70224101	     -1.94954287	     15.53527181	     -3.45717747	     21.94350247	     -1.25764001	      0.00000000	     -7.93353315	      0.05978378	     -9.41002655
      6.59500000	      4.26688411	     -3.59873764	     -2.32030762	     -0.00298920	      1.17567982	      0.37483651	      8.45518720	     -1.68918172	     -0.93016235	     -0.31263102	    -13.39667038	      0.22681792	    -14.74461689	      1.25190872	      0.00000000	    -19.43198104	      0.74700605	      1.67874688	     -2.08757268	     15.56677398	     -3.45247324	     22.05434564	     -1.26649557	      0.00000000	     -7.95395283	      0.08174162	     -9.43213553
